<svg width="123" height="27" viewBox="0 0 123 27" fill="none" xmlns="http://www.w3.org/2000/svg">
<g filter="url(#filter0_d_297080_7247)">
<path d="M10.436 5.238H13.154L14.486 9.324L15.818 5.238H18.554L16.376 11.178L17.672 14.58L20.876 5.22H24.098L19.112 18H16.556L14.486 12.996L12.434 18H9.86L4.892 5.22H8.096L11.318 14.58L12.578 11.178L10.436 5.238ZM34.7304 15.408V18H25.7484V5.22H34.5684V7.812H28.7004V10.296H33.7404V12.69H28.7004V15.408H34.7304ZM47.6298 14.724C47.6298 15.456 47.4318 16.068 47.0358 16.56C46.6518 17.04 46.1298 17.4 45.4698 17.64C44.8098 17.88 44.0838 18 43.2918 18H37.0638V5.22H44.1738C44.7738 5.22 45.2898 5.382 45.7218 5.706C46.1658 6.018 46.5018 6.426 46.7298 6.93C46.9698 7.434 47.0898 7.956 47.0898 8.496C47.0898 9.096 46.9338 9.672 46.6218 10.224C46.3098 10.764 45.8538 11.172 45.2538 11.448C45.9858 11.664 46.5618 12.048 46.9818 12.6C47.4138 13.152 47.6298 13.86 47.6298 14.724ZM44.6238 14.13C44.6238 13.854 44.5698 13.614 44.4618 13.41C44.3538 13.194 44.2098 13.026 44.0298 12.906C43.8618 12.774 43.6578 12.708 43.4178 12.708H40.0158V15.498H43.2918C43.5438 15.498 43.7658 15.438 43.9578 15.318C44.1618 15.198 44.3238 15.036 44.4438 14.832C44.5638 14.628 44.6238 14.394 44.6238 14.13ZM40.0158 7.74V10.386H42.9138C43.1298 10.386 43.3278 10.338 43.5078 10.242C43.6998 10.146 43.8558 10.002 43.9758 9.81C44.0958 9.606 44.1558 9.354 44.1558 9.054C44.1558 8.766 44.1018 8.526 43.9938 8.334C43.8978 8.142 43.7658 7.998 43.5978 7.902C43.4298 7.794 43.2378 7.74 43.0218 7.74H40.0158Z" fill="#4D5AE5"/>
<path d="M57.892 8.964C57.856 8.904 57.73 8.814 57.514 8.694C57.298 8.562 57.028 8.424 56.704 8.28C56.38 8.136 56.026 8.01 55.642 7.902C55.258 7.794 54.874 7.74 54.49 7.74C53.986 7.74 53.596 7.83 53.32 8.01C53.044 8.178 52.906 8.442 52.906 8.802C52.906 9.09 53.008 9.318 53.212 9.486C53.428 9.654 53.734 9.804 54.13 9.936C54.526 10.056 55.012 10.2 55.588 10.368C56.404 10.584 57.112 10.848 57.712 11.16C58.312 11.46 58.768 11.85 59.08 12.33C59.404 12.81 59.566 13.446 59.566 14.238C59.566 14.958 59.434 15.57 59.17 16.074C58.906 16.566 58.546 16.968 58.09 17.28C57.646 17.58 57.136 17.802 56.56 17.946C55.984 18.078 55.39 18.144 54.778 18.144C54.154 18.144 53.512 18.084 52.852 17.964C52.204 17.832 51.58 17.652 50.98 17.424C50.38 17.184 49.828 16.896 49.324 16.56L50.62 13.986C50.668 14.046 50.824 14.16 51.088 14.328C51.352 14.484 51.676 14.652 52.06 14.832C52.456 15 52.894 15.15 53.374 15.282C53.854 15.414 54.34 15.48 54.832 15.48C55.36 15.48 55.75 15.396 56.002 15.228C56.266 15.06 56.398 14.826 56.398 14.526C56.398 14.202 56.26 13.95 55.984 13.77C55.72 13.59 55.354 13.428 54.886 13.284C54.43 13.14 53.902 12.978 53.302 12.798C52.522 12.558 51.874 12.288 51.358 11.988C50.854 11.688 50.476 11.322 50.224 10.89C49.984 10.458 49.864 9.918 49.864 9.27C49.864 8.37 50.074 7.614 50.494 7.002C50.926 6.378 51.502 5.91 52.222 5.598C52.942 5.274 53.728 5.112 54.58 5.112C55.18 5.112 55.756 5.184 56.308 5.328C56.872 5.472 57.394 5.652 57.874 5.868C58.366 6.084 58.804 6.3 59.188 6.516L57.892 8.964ZM71.5762 7.812H67.6882V18H64.7362V7.812H60.8302V5.22H71.5762V7.812ZM79.0479 18.108C78.0279 18.108 77.1579 17.94 76.4379 17.604C75.7179 17.256 75.1299 16.788 74.6739 16.2C74.2299 15.6 73.8999 14.922 73.6839 14.166C73.4799 13.398 73.3779 12.594 73.3779 11.754V5.22H76.3299V11.754C76.3299 12.234 76.3779 12.702 76.4739 13.158C76.5699 13.602 76.7259 13.998 76.9419 14.346C77.1579 14.694 77.4339 14.97 77.7699 15.174C78.1179 15.378 78.5439 15.48 79.0479 15.48C79.5639 15.48 79.9959 15.378 80.3439 15.174C80.6919 14.958 80.9679 14.676 81.1719 14.328C81.3759 13.968 81.5259 13.566 81.6219 13.122C81.7179 12.678 81.7659 12.222 81.7659 11.754V5.22H84.7179V11.754C84.7179 12.642 84.6039 13.47 84.3759 14.238C84.1599 15.006 83.8239 15.684 83.3679 16.272C82.9119 16.848 82.3239 17.298 81.6039 17.622C80.8959 17.946 80.0439 18.108 79.0479 18.108ZM87.5452 18V5.22H92.3152C93.7192 5.22 94.8892 5.508 95.8252 6.084C96.7732 6.648 97.4872 7.416 97.9672 8.388C98.4472 9.348 98.6872 10.416 98.6872 11.592C98.6872 12.888 98.4232 14.016 97.8952 14.976C97.3672 15.936 96.6232 16.68 95.6632 17.208C94.7152 17.736 93.5992 18 92.3152 18H87.5452ZM95.6812 11.592C95.6812 10.848 95.5492 10.194 95.2852 9.63C95.0212 9.054 94.6372 8.61 94.1332 8.298C93.6292 7.974 93.0232 7.812 92.3152 7.812H90.4972V15.408H92.3152C93.0352 15.408 93.6412 15.246 94.1332 14.922C94.6372 14.586 95.0212 14.13 95.2852 13.554C95.5492 12.966 95.6812 12.312 95.6812 11.592ZM100.97 18V5.22H103.922V18H100.97ZM112.504 18.108C111.544 18.108 110.674 17.928 109.894 17.568C109.126 17.196 108.46 16.704 107.896 16.092C107.344 15.468 106.918 14.772 106.618 14.004C106.318 13.224 106.168 12.42 106.168 11.592C106.168 10.74 106.324 9.93 106.636 9.162C106.96 8.394 107.404 7.71 107.968 7.11C108.544 6.498 109.222 6.018 110.002 5.67C110.782 5.322 111.634 5.148 112.558 5.148C113.506 5.148 114.364 5.334 115.132 5.706C115.912 6.066 116.578 6.558 117.13 7.182C117.694 7.806 118.126 8.508 118.426 9.288C118.726 10.056 118.876 10.842 118.876 11.646C118.876 12.498 118.72 13.308 118.408 14.076C118.096 14.844 117.652 15.534 117.076 16.146C116.5 16.746 115.822 17.226 115.042 17.586C114.274 17.934 113.428 18.108 112.504 18.108ZM109.174 11.628C109.174 12.12 109.246 12.6 109.39 13.068C109.534 13.524 109.744 13.932 110.02 14.292C110.308 14.652 110.662 14.94 111.082 15.156C111.502 15.372 111.982 15.48 112.522 15.48C113.086 15.48 113.578 15.372 113.998 15.156C114.418 14.928 114.766 14.628 115.042 14.256C115.318 13.884 115.522 13.47 115.654 13.014C115.798 12.546 115.87 12.072 115.87 11.592C115.87 11.1 115.798 10.626 115.654 10.17C115.51 9.714 115.294 9.306 115.006 8.946C114.718 8.574 114.364 8.286 113.944 8.082C113.524 7.878 113.05 7.776 112.522 7.776C111.958 7.776 111.466 7.884 111.046 8.1C110.638 8.316 110.29 8.61 110.002 8.982C109.726 9.342 109.516 9.756 109.372 10.224C109.24 10.68 109.174 11.148 109.174 11.628Z" fill="#2E2F42"/>
</g>
<defs>
<filter id="filter0_d_297080_7247" x="0.892029" y="0" width="123.108" height="32" filterUnits="userSpaceOnUse" color-interpolation-filters="sRGB">
<feFlood flood-opacity="0" result="BackgroundImageFix"/>
<feColorMatrix in="SourceAlpha" type="matrix" values="0 0 0 0 0 0 0 0 0 0 0 0 0 0 0 0 0 0 127 0" result="hardAlpha"/>
<feOffset dy="4"/>
<feGaussianBlur stdDeviation="2"/>
<feComposite in2="hardAlpha" operator="out"/>
<feColorMatrix type="matrix" values="0 0 0 0 0 0 0 0 0 0 0 0 0 0 0 0 0 0 0.25 0"/>
<feBlend mode="normal" in2="BackgroundImageFix" result="effect1_dropShadow_297080_7247"/>
<feBlend mode="normal" in="SourceGraphic" in2="effect1_dropShadow_297080_7247" result="shape"/>
</filter>
</defs>
</svg>
